<svg width="266" height="46" viewBox="0 0 266 46" fill="none" xmlns="http://www.w3.org/2000/svg">
<path opacity="0.9" d="M11.2069 5.74224C11.535 5.08599 12.4647 5.11334 12.7655 5.74224L14.5702 9.37896L18.5624 9.95318C19.2733 10.0626 19.5467 10.9376 19.0272 11.4571L16.1561 14.2735L16.8397 18.2383C16.9491 18.9493 16.1835 19.4961 15.5546 19.168L11.9999 17.2813L8.41784 19.168C7.78894 19.4961 7.02331 18.9493 7.13269 18.2383L7.81628 14.2735L4.94519 11.4571C4.42565 10.9376 4.69909 10.0626 5.41003 9.95318L9.42956 9.37896L11.2069 5.74224Z" fill="#FF9A60"/>
<path opacity="0.9" d="M35.2069 5.74224C35.535 5.08599 36.4647 5.11334 36.7655 5.74224L38.5702 9.37896L42.5624 9.95318C43.2733 10.0626 43.5467 10.9376 43.0272 11.4571L40.1561 14.2735L40.8397 18.2383C40.9491 18.9493 40.1835 19.4961 39.5546 19.168L35.9999 17.2813L32.4178 19.168C31.7889 19.4961 31.0233 18.9493 31.1327 18.2383L31.8163 14.2735L28.9452 11.4571C28.4257 10.9376 28.6991 10.0626 29.41 9.95318L33.4296 9.37896L35.2069 5.74224Z" fill="#FF9A60"/>
<path opacity="0.9" d="M59.2069 5.74224C59.535 5.08599 60.4647 5.11334 60.7655 5.74224L62.5702 9.37896L66.5624 9.95318C67.2733 10.0626 67.5467 10.9376 67.0272 11.4571L64.1561 14.2735L64.8397 18.2383C64.9491 18.9493 64.1835 19.4961 63.5546 19.168L59.9999 17.2813L56.4178 19.168C55.7889 19.4961 55.0233 18.9493 55.1327 18.2383L55.8163 14.2735L52.9452 11.4571C52.4257 10.9376 52.6991 10.0626 53.41 9.95318L57.4296 9.37896L59.2069 5.74224Z" fill="#FF9A60"/>
<path opacity="0.9" d="M83.2069 5.74224C83.535 5.08599 84.4647 5.11334 84.7655 5.74224L86.5702 9.37896L90.5624 9.95318C91.2733 10.0626 91.5467 10.9376 91.0272 11.4571L88.1561 14.2735L88.8397 18.2383C88.9491 18.9493 88.1835 19.4961 87.5546 19.168L83.9999 17.2813L80.4178 19.168C79.7889 19.4961 79.0233 18.9493 79.1327 18.2383L79.8163 14.2735L76.9452 11.4571C76.4257 10.9376 76.6991 10.0626 77.41 9.95318L81.4296 9.37896L83.2069 5.74224Z" fill="#FF9A60"/>
<path opacity="0.9" d="M107.207 5.74224C107.535 5.08599 108.465 5.11334 108.765 5.74224L110.57 9.37896L114.562 9.95318C115.273 10.0626 115.547 10.9376 115.027 11.4571L112.156 14.2735L112.84 18.2383C112.949 18.9493 112.183 19.4961 111.555 19.168L108 17.2813L104.418 19.168C103.789 19.4961 103.023 18.9493 103.133 18.2383L103.816 14.2735L100.945 11.4571C100.426 10.9376 100.699 10.0626 101.41 9.95318L105.43 9.37896L107.207 5.74224Z" fill="#FF9A60"/>
<path d="M1.99898 40.134L5.90498 37.208C6.44632 36.8067 6.84298 36.396 7.09498 35.976C7.34698 35.5467 7.47299 35.0847 7.47299 34.59C7.47299 33.9647 7.29565 33.4747 6.94098 33.12C6.58632 32.756 6.09632 32.574 5.47098 32.574C4.88298 32.574 4.40232 32.756 4.02898 33.12C3.65565 33.484 3.39432 34.016 3.24498 34.716H1.70498C1.74232 33.96 1.92898 33.3113 2.26498 32.77C2.61032 32.2193 3.05832 31.7993 3.60898 31.51C4.16898 31.2207 4.78965 31.076 5.47098 31.076C6.19898 31.076 6.82898 31.2253 7.36098 31.524C7.90232 31.8133 8.32232 32.2193 8.62098 32.742C8.91965 33.2647 9.06898 33.8807 9.06898 34.59C9.06898 35.318 8.88232 35.9947 8.50899 36.62C8.13565 37.2453 7.57098 37.8333 6.81498 38.384L3.35698 40.862V41.002H8.84498V42.5H1.99898V40.134ZM14.1617 42.724C12.7991 42.724 11.7771 42.2387 11.0957 41.268C10.4144 40.2973 10.0737 38.8413 10.0737 36.9C10.0737 34.9587 10.4144 33.5027 11.0957 32.532C11.7771 31.5613 12.7991 31.076 14.1617 31.076C15.5244 31.076 16.5464 31.5613 17.2277 32.532C17.9091 33.5027 18.2497 34.9587 18.2497 36.9C18.2497 38.8413 17.9091 40.2973 17.2277 41.268C16.5464 42.2387 15.5244 42.724 14.1617 42.724ZM14.1617 41.226C15.0204 41.226 15.6504 40.876 16.0517 40.176C16.4531 39.476 16.6537 38.384 16.6537 36.9C16.6537 35.416 16.4531 34.324 16.0517 33.624C15.6504 32.924 15.0204 32.574 14.1617 32.574C13.3031 32.574 12.6731 32.924 12.2717 33.624C11.8704 34.324 11.6697 35.416 11.6697 36.9C11.6697 38.384 11.8704 39.476 12.2717 40.176C12.6731 40.876 13.3031 41.226 14.1617 41.226ZM11.2077 38.202L17.0597 33.778V35.598L11.2077 40.022V38.202ZM22.9645 42.724C21.6018 42.724 20.5798 42.2387 19.8985 41.268C19.2171 40.2973 18.8765 38.8413 18.8765 36.9C18.8765 34.9587 19.2171 33.5027 19.8985 32.532C20.5798 31.5613 21.6018 31.076 22.9645 31.076C24.3271 31.076 25.3491 31.5613 26.0305 32.532C26.7118 33.5027 27.0525 34.9587 27.0525 36.9C27.0525 38.8413 26.7118 40.2973 26.0305 41.268C25.3491 42.2387 24.3271 42.724 22.9645 42.724ZM22.9645 41.226C23.8231 41.226 24.4531 40.876 24.8545 40.176C25.2558 39.476 25.4565 38.384 25.4565 36.9C25.4565 35.416 25.2558 34.324 24.8545 33.624C24.4531 32.924 23.8231 32.574 22.9645 32.574C22.1058 32.574 21.4758 32.924 21.0745 33.624C20.6731 34.324 20.4725 35.416 20.4725 36.9C20.4725 38.384 20.6731 39.476 21.0745 40.176C21.4758 40.876 22.1058 41.226 22.9645 41.226ZM20.0105 38.202L25.8625 33.778V35.598L20.0105 40.022V38.202ZM31.0672 41.562V38.3H27.8052V36.9H31.0672V33.638H32.4672V36.9H35.7292V38.3H32.4672V41.562H31.0672ZM48.7847 42.724C48.0847 42.724 47.478 42.5467 46.9647 42.192C46.4607 41.828 46.064 41.3147 45.7747 40.652C45.4947 39.9893 45.3547 39.2053 45.3547 38.3C45.3547 37.3947 45.4947 36.6107 45.7747 35.948C46.064 35.2853 46.4607 34.7767 46.9647 34.422C47.478 34.058 48.0847 33.876 48.7847 33.876C49.242 33.876 49.6573 33.9647 50.0307 34.142C50.404 34.3193 50.6793 34.562 50.8567 34.87H51.2767V30.628H52.8167V42.5H51.2767V41.73H50.8567C50.6793 42.0287 50.404 42.2713 50.0307 42.458C49.6573 42.6353 49.242 42.724 48.7847 42.724ZM49.1067 41.282C49.816 41.282 50.362 41.0207 50.7447 40.498C51.1367 39.9753 51.3327 39.2427 51.3327 38.3C51.3327 37.3573 51.1367 36.6247 50.7447 36.102C50.362 35.5793 49.816 35.318 49.1067 35.318C48.4067 35.318 47.8607 35.5793 47.4687 36.102C47.086 36.6247 46.8947 37.3573 46.8947 38.3C46.8947 39.2427 47.086 39.9753 47.4687 40.498C47.8607 41.0207 48.4067 41.282 49.1067 41.282ZM55.7814 37.446H60.8354L60.3174 38.174C60.3174 37.2313 60.1494 36.5127 59.8134 36.018C59.4774 35.5233 58.9874 35.276 58.3434 35.276C57.6434 35.276 57.0974 35.5373 56.7054 36.06C56.3134 36.5733 56.1174 37.2967 56.1174 38.23C56.1174 39.2287 56.3134 39.994 56.7054 40.526C57.0974 41.058 57.6574 41.324 58.3854 41.324C58.8614 41.324 59.2767 41.2073 59.6314 40.974C59.9861 40.7313 60.2847 40.3813 60.5274 39.924H61.9694C61.8294 40.5027 61.5914 41.002 61.2554 41.422C60.9287 41.842 60.5181 42.164 60.0234 42.388C59.5381 42.612 58.9921 42.724 58.3854 42.724C57.6014 42.724 56.9247 42.5467 56.3554 42.192C55.7954 41.8373 55.3661 41.324 55.0674 40.652C54.7687 39.98 54.6194 39.1727 54.6194 38.23C54.6194 37.334 54.7687 36.564 55.0674 35.92C55.3754 35.2667 55.8094 34.7627 56.3694 34.408C56.9294 34.0533 57.5874 33.876 58.3434 33.876C59.0621 33.876 59.6734 34.044 60.1774 34.38C60.6814 34.716 61.0687 35.206 61.3394 35.85C61.6101 36.4847 61.7454 37.2547 61.7454 38.16C61.7454 38.2627 61.7407 38.37 61.7314 38.482C61.7314 38.594 61.7267 38.7013 61.7174 38.804H55.7814V37.446ZM63.0161 34.1H64.6541L66.9641 41.114H67.1041L69.4001 34.1H70.9401L68.1541 42.5H65.8021L63.0161 34.1ZM73.3869 37.446H78.4409L77.9229 38.174C77.9229 37.2313 77.7549 36.5127 77.4189 36.018C77.0829 35.5233 76.5929 35.276 75.9489 35.276C75.2489 35.276 74.7029 35.5373 74.3109 36.06C73.9189 36.5733 73.7229 37.2967 73.7229 38.23C73.7229 39.2287 73.9189 39.994 74.3109 40.526C74.7029 41.058 75.2629 41.324 75.9909 41.324C76.4669 41.324 76.8822 41.2073 77.2369 40.974C77.5915 40.7313 77.8902 40.3813 78.1329 39.924H79.5749C79.4349 40.5027 79.1969 41.002 78.8609 41.422C78.5342 41.842 78.1235 42.164 77.6289 42.388C77.1435 42.612 76.5975 42.724 75.9909 42.724C75.2069 42.724 74.5302 42.5467 73.9609 42.192C73.4009 41.8373 72.9715 41.324 72.6729 40.652C72.3742 39.98 72.2249 39.1727 72.2249 38.23C72.2249 37.334 72.3742 36.564 72.6729 35.92C72.9809 35.2667 73.4149 34.7627 73.9749 34.408C74.5349 34.0533 75.1929 33.876 75.9489 33.876C76.6675 33.876 77.2789 34.044 77.7829 34.38C78.2869 34.716 78.6742 35.206 78.9449 35.85C79.2155 36.4847 79.3509 37.2547 79.3509 38.16C79.3509 38.2627 79.3462 38.37 79.3369 38.482C79.3369 38.594 79.3322 38.7013 79.3229 38.804H73.3869V37.446ZM81.5036 30.628H85.5916V41.058H88.1256V42.5H81.5036V41.058H84.0516V32.07H81.5036V30.628ZM93.3863 42.724C92.6117 42.724 91.9397 42.5467 91.3703 42.192C90.801 41.828 90.3577 41.3147 90.0403 40.652C89.7323 39.9893 89.5783 39.2053 89.5783 38.3C89.5783 37.3947 89.7323 36.6107 90.0403 35.948C90.3577 35.2853 90.801 34.7767 91.3703 34.422C91.9397 34.058 92.6117 33.876 93.3863 33.876C94.1703 33.876 94.8423 34.058 95.4023 34.422C95.9717 34.7767 96.4103 35.2853 96.7183 35.948C97.0357 36.6107 97.1943 37.3947 97.1943 38.3C97.1943 39.2053 97.0357 39.9893 96.7183 40.652C96.4103 41.3147 95.9717 41.828 95.4023 42.192C94.8423 42.5467 94.1703 42.724 93.3863 42.724ZM93.3863 41.282C94.105 41.282 94.665 41.0207 95.0663 40.498C95.4677 39.9753 95.6683 39.2427 95.6683 38.3C95.6683 37.3573 95.4677 36.6247 95.0663 36.102C94.665 35.5793 94.105 35.318 93.3863 35.318C92.6677 35.318 92.1077 35.5793 91.7063 36.102C91.305 36.6247 91.1043 37.3573 91.1043 38.3C91.1043 39.2427 91.305 39.9753 91.7063 40.498C92.1077 41.0207 92.6677 41.282 93.3863 41.282ZM98.7451 45.3V34.1H100.285V34.87H100.705C100.892 34.562 101.172 34.3193 101.545 34.142C101.918 33.9647 102.329 33.876 102.777 33.876C103.477 33.876 104.084 34.058 104.597 34.422C105.11 34.7767 105.507 35.2853 105.787 35.948C106.067 36.6107 106.207 37.3947 106.207 38.3C106.207 39.2053 106.067 39.9893 105.787 40.652C105.507 41.3147 105.11 41.828 104.597 42.192C104.084 42.5467 103.477 42.724 102.777 42.724C102.329 42.724 101.918 42.6353 101.545 42.458C101.172 42.2713 100.892 42.0287 100.705 41.73H100.285V45.3H98.7451ZM102.455 41.282C103.155 41.282 103.696 41.0207 104.079 40.498C104.471 39.9753 104.667 39.2427 104.667 38.3C104.667 37.3573 104.471 36.6247 104.079 36.102C103.696 35.5793 103.155 35.318 102.455 35.318C101.746 35.318 101.195 35.5793 100.803 36.102C100.42 36.6247 100.229 37.3573 100.229 38.3C100.229 39.2427 100.42 39.9753 100.803 40.498C101.195 41.0207 101.746 41.282 102.455 41.282ZM108.598 37.446H113.652L113.134 38.174C113.134 37.2313 112.966 36.5127 112.63 36.018C112.294 35.5233 111.804 35.276 111.16 35.276C110.46 35.276 109.914 35.5373 109.522 36.06C109.13 36.5733 108.934 37.2967 108.934 38.23C108.934 39.2287 109.13 39.994 109.522 40.526C109.914 41.058 110.474 41.324 111.202 41.324C111.678 41.324 112.093 41.2073 112.448 40.974C112.802 40.7313 113.101 40.3813 113.344 39.924H114.786C114.646 40.5027 114.408 41.002 114.072 41.422C113.745 41.842 113.334 42.164 112.84 42.388C112.354 42.612 111.808 42.724 111.202 42.724C110.418 42.724 109.741 42.5467 109.172 42.192C108.612 41.8373 108.182 41.324 107.884 40.652C107.585 39.98 107.436 39.1727 107.436 38.23C107.436 37.334 107.585 36.564 107.884 35.92C108.192 35.2667 108.626 34.7627 109.186 34.408C109.746 34.0533 110.404 33.876 111.16 33.876C111.878 33.876 112.49 34.044 112.994 34.38C113.498 34.716 113.885 35.206 114.156 35.85C114.426 36.4847 114.562 37.2547 114.562 38.16C114.562 38.2627 114.557 38.37 114.548 38.482C114.548 38.594 114.543 38.7013 114.534 38.804H108.598V37.446ZM116.225 34.1H119.501V34.716H119.921C120.089 34.4453 120.317 34.24 120.607 34.1C120.896 33.9507 121.227 33.876 121.601 33.876C122.273 33.876 122.805 34.114 123.197 34.59C123.589 35.0567 123.785 35.7007 123.785 36.522V37.74H122.189V36.746C122.189 35.8033 121.806 35.332 121.041 35.332C120.555 35.332 120.191 35.5513 119.949 35.99C119.715 36.4193 119.599 37.0633 119.599 37.922V41.058H122.203V42.5H116.477V41.058H118.059V35.542H116.225V34.1ZM126.651 39.924C126.782 40.3627 127.02 40.6987 127.365 40.932C127.711 41.1653 128.154 41.282 128.695 41.282C129.255 41.282 129.685 41.184 129.983 40.988C130.282 40.7827 130.431 40.4933 130.431 40.12C130.431 39.868 130.31 39.658 130.067 39.49C129.825 39.322 129.465 39.2053 128.989 39.14L127.967 38.986C127.053 38.846 126.376 38.5753 125.937 38.174C125.499 37.7727 125.279 37.2127 125.279 36.494C125.279 35.682 125.578 35.0427 126.175 34.576C126.782 34.1093 127.613 33.876 128.667 33.876C129.741 33.876 130.59 34.1373 131.215 34.66C131.841 35.1827 132.172 35.9107 132.209 36.844H130.809C130.679 36.3493 130.431 35.9713 130.067 35.71C129.703 35.4487 129.227 35.318 128.639 35.318C128.051 35.318 127.599 35.4207 127.281 35.626C126.964 35.822 126.805 36.1067 126.805 36.48C126.805 36.732 126.927 36.942 127.169 37.11C127.412 37.278 127.771 37.3947 128.247 37.46L129.269 37.614C130.193 37.754 130.87 38.0247 131.299 38.426C131.738 38.8273 131.957 39.3873 131.957 40.106C131.957 40.6473 131.822 41.114 131.551 41.506C131.29 41.898 130.917 42.2013 130.431 42.416C129.946 42.6213 129.363 42.724 128.681 42.724C127.636 42.724 126.81 42.4767 126.203 41.982C125.606 41.4873 125.279 40.8013 125.223 39.924H126.651ZM143.151 34.1H148.331V42.766C148.331 43.6433 148.083 44.32 147.589 44.796C147.103 45.2813 146.408 45.524 145.503 45.524C144.663 45.524 143.995 45.314 143.501 44.894C143.006 44.4833 142.731 43.9 142.675 43.144H144.103C144.233 43.4613 144.411 43.6993 144.635 43.858C144.868 44.026 145.157 44.11 145.503 44.11C145.913 44.11 146.231 43.984 146.455 43.732C146.679 43.48 146.791 43.13 146.791 42.682V35.542H143.151V34.1ZM147.561 32.854C147.197 32.854 146.912 32.756 146.707 32.56C146.501 32.3547 146.399 32.0747 146.399 31.72C146.399 31.3653 146.501 31.09 146.707 30.894C146.912 30.6887 147.197 30.586 147.561 30.586C147.925 30.586 148.209 30.6887 148.415 30.894C148.62 31.09 148.723 31.3653 148.723 31.72C148.723 32.0747 148.62 32.3547 148.415 32.56C148.209 32.756 147.925 32.854 147.561 32.854ZM155.005 42.724C154.231 42.724 153.559 42.5467 152.989 42.192C152.42 41.828 151.977 41.3147 151.659 40.652C151.351 39.9893 151.197 39.2053 151.197 38.3C151.197 37.3947 151.351 36.6107 151.659 35.948C151.977 35.2853 152.42 34.7767 152.989 34.422C153.559 34.058 154.231 33.876 155.005 33.876C155.789 33.876 156.461 34.058 157.021 34.422C157.591 34.7767 158.029 35.2853 158.337 35.948C158.655 36.6107 158.813 37.3947 158.813 38.3C158.813 39.2053 158.655 39.9893 158.337 40.652C158.029 41.3147 157.591 41.828 157.021 42.192C156.461 42.5467 155.789 42.724 155.005 42.724ZM155.005 41.282C155.724 41.282 156.284 41.0207 156.685 40.498C157.087 39.9753 157.287 39.2427 157.287 38.3C157.287 37.3573 157.087 36.6247 156.685 36.102C156.284 35.5793 155.724 35.318 155.005 35.318C154.287 35.318 153.727 35.5793 153.325 36.102C152.924 36.6247 152.723 37.3573 152.723 38.3C152.723 39.2427 152.924 39.9753 153.325 40.498C153.727 41.0207 154.287 41.282 155.005 41.282ZM160.938 34.1H165.026V41.058H167.56V42.5H160.938V41.058H163.486V35.542H160.938V34.1ZM164.144 32.854C163.78 32.854 163.496 32.756 163.29 32.56C163.085 32.3547 162.982 32.0747 162.982 31.72C162.982 31.3653 163.085 31.09 163.29 30.894C163.496 30.6887 163.78 30.586 164.144 30.586C164.508 30.586 164.793 30.6887 164.998 30.894C165.204 31.09 165.306 31.3653 165.306 31.72C165.306 32.0747 165.204 32.3547 164.998 32.56C164.793 32.756 164.508 32.854 164.144 32.854ZM169.293 42.5V34.1H170.833V34.73H171.253C171.468 34.4593 171.743 34.2493 172.079 34.1C172.415 33.9507 172.784 33.876 173.185 33.876C173.773 33.876 174.282 34.0067 174.711 34.268C175.14 34.5293 175.476 34.898 175.719 35.374C175.962 35.85 176.083 36.41 176.083 37.054V42.5H174.543V37.474C174.543 36.774 174.384 36.2467 174.067 35.892C173.759 35.528 173.302 35.346 172.695 35.346C172.088 35.346 171.626 35.528 171.309 35.892C170.992 36.2467 170.833 36.774 170.833 37.474V42.5H169.293ZM179.02 37.446H184.074L183.556 38.174C183.556 37.2313 183.388 36.5127 183.052 36.018C182.716 35.5233 182.226 35.276 181.582 35.276C180.882 35.276 180.336 35.5373 179.944 36.06C179.552 36.5733 179.356 37.2967 179.356 38.23C179.356 39.2287 179.552 39.994 179.944 40.526C180.336 41.058 180.896 41.324 181.624 41.324C182.1 41.324 182.515 41.2073 182.87 40.974C183.224 40.7313 183.523 40.3813 183.766 39.924H185.208C185.068 40.5027 184.83 41.002 184.494 41.422C184.167 41.842 183.756 42.164 183.262 42.388C182.776 42.612 182.23 42.724 181.624 42.724C180.84 42.724 180.163 42.5467 179.594 42.192C179.034 41.8373 178.604 41.324 178.306 40.652C178.007 39.98 177.858 39.1727 177.858 38.23C177.858 37.334 178.007 36.564 178.306 35.92C178.614 35.2667 179.048 34.7627 179.608 34.408C180.168 34.0533 180.826 33.876 181.582 33.876C182.3 33.876 182.912 34.044 183.416 34.38C183.92 34.716 184.307 35.206 184.578 35.85C184.848 36.4847 184.984 37.2547 184.984 38.16C184.984 38.2627 184.979 38.37 184.97 38.482C184.97 38.594 184.965 38.7013 184.956 38.804H179.02V37.446ZM189.628 42.724C188.928 42.724 188.322 42.5467 187.808 42.192C187.304 41.828 186.908 41.3147 186.618 40.652C186.338 39.9893 186.198 39.2053 186.198 38.3C186.198 37.3947 186.338 36.6107 186.618 35.948C186.908 35.2853 187.304 34.7767 187.808 34.422C188.322 34.058 188.928 33.876 189.628 33.876C190.086 33.876 190.501 33.9647 190.874 34.142C191.248 34.3193 191.523 34.562 191.7 34.87H192.12V30.628H193.66V42.5H192.12V41.73H191.7C191.523 42.0287 191.248 42.2713 190.874 42.458C190.501 42.6353 190.086 42.724 189.628 42.724ZM189.95 41.282C190.66 41.282 191.206 41.0207 191.588 40.498C191.98 39.9753 192.176 39.2427 192.176 38.3C192.176 37.3573 191.98 36.6247 191.588 36.102C191.206 35.5793 190.66 35.318 189.95 35.318C189.25 35.318 188.704 35.5793 188.312 36.102C187.93 36.6247 187.738 37.3573 187.738 38.3C187.738 39.2427 187.93 39.9753 188.312 40.498C188.704 41.0207 189.25 41.282 189.95 41.282ZM209.726 37.25V38.608L207.206 39C206.814 39.0653 206.52 39.2007 206.324 39.406C206.137 39.6113 206.044 39.882 206.044 40.218C206.044 40.5353 206.161 40.792 206.394 40.988C206.637 41.184 206.945 41.282 207.318 41.282C207.729 41.282 208.102 41.184 208.438 40.988C208.783 40.792 209.059 40.5307 209.264 40.204C209.469 39.868 209.572 39.4993 209.572 39.098V37.04C209.572 36.4987 209.409 36.074 209.082 35.766C208.755 35.458 208.307 35.304 207.738 35.304C207.337 35.304 206.977 35.3693 206.66 35.5C206.343 35.6307 206.081 35.822 205.876 36.074C205.68 36.326 205.545 36.634 205.47 36.998H204C204.047 36.354 204.229 35.7987 204.546 35.332C204.873 34.8653 205.311 34.506 205.862 34.254C206.413 34.002 207.052 33.876 207.78 33.876C208.825 33.876 209.633 34.142 210.202 34.674C210.781 35.206 211.07 35.962 211.07 36.942V42.5H209.572V41.73H209.152C208.928 42.0473 208.634 42.29 208.27 42.458C207.915 42.626 207.477 42.71 206.954 42.71C206.441 42.71 205.993 42.612 205.61 42.416C205.237 42.2107 204.943 41.926 204.728 41.562C204.523 41.198 204.42 40.7733 204.42 40.288C204.42 39.588 204.644 39.014 205.092 38.566C205.54 38.1087 206.179 37.8147 207.01 37.684L209.726 37.25ZM213.545 30.628H217.633V41.058H220.167V42.5H213.545V41.058H216.093V32.07H213.545V30.628ZM221.857 34.1H225.133V34.716H225.553C225.721 34.4453 225.95 34.24 226.239 34.1C226.529 33.9507 226.86 33.876 227.233 33.876C227.905 33.876 228.437 34.114 228.829 34.59C229.221 35.0567 229.417 35.7007 229.417 36.522V37.74H227.821V36.746C227.821 35.8033 227.439 35.332 226.673 35.332C226.188 35.332 225.824 35.5513 225.581 35.99C225.348 36.4193 225.231 37.0633 225.231 37.922V41.058H227.835V42.5H222.109V41.058H223.691V35.542H221.857V34.1ZM231.836 37.446H236.89L236.372 38.174C236.372 37.2313 236.204 36.5127 235.868 36.018C235.532 35.5233 235.042 35.276 234.398 35.276C233.698 35.276 233.152 35.5373 232.76 36.06C232.368 36.5733 232.172 37.2967 232.172 38.23C232.172 39.2287 232.368 39.994 232.76 40.526C233.152 41.058 233.712 41.324 234.44 41.324C234.916 41.324 235.331 41.2073 235.686 40.974C236.041 40.7313 236.339 40.3813 236.582 39.924H238.024C237.884 40.5027 237.646 41.002 237.31 41.422C236.983 41.842 236.573 42.164 236.078 42.388C235.593 42.612 235.047 42.724 234.44 42.724C233.656 42.724 232.979 42.5467 232.41 42.192C231.85 41.8373 231.421 41.324 231.122 40.652C230.823 39.98 230.674 39.1727 230.674 38.23C230.674 37.334 230.823 36.564 231.122 35.92C231.43 35.2667 231.864 34.7627 232.424 34.408C232.984 34.0533 233.642 33.876 234.398 33.876C235.117 33.876 235.728 34.044 236.232 34.38C236.736 34.716 237.123 35.206 237.394 35.85C237.665 36.4847 237.8 37.2547 237.8 38.16C237.8 38.2627 237.795 38.37 237.786 38.482C237.786 38.594 237.781 38.7013 237.772 38.804H231.836V37.446ZM244.937 37.25V38.608L242.417 39C242.025 39.0653 241.731 39.2007 241.535 39.406C241.348 39.6113 241.255 39.882 241.255 40.218C241.255 40.5353 241.371 40.792 241.605 40.988C241.847 41.184 242.155 41.282 242.529 41.282C242.939 41.282 243.313 41.184 243.649 40.988C243.994 40.792 244.269 40.5307 244.475 40.204C244.68 39.868 244.783 39.4993 244.783 39.098V37.04C244.783 36.4987 244.619 36.074 244.293 35.766C243.966 35.458 243.518 35.304 242.949 35.304C242.547 35.304 242.188 35.3693 241.871 35.5C241.553 35.6307 241.292 35.822 241.087 36.074C240.891 36.326 240.755 36.634 240.681 36.998H239.211C239.257 36.354 239.439 35.7987 239.757 35.332C240.083 34.8653 240.522 34.506 241.073 34.254C241.623 34.002 242.263 33.876 242.991 33.876C244.036 33.876 244.843 34.142 245.413 34.674C245.991 35.206 246.281 35.962 246.281 36.942V42.5H244.783V41.73H244.363C244.139 42.0473 243.845 42.29 243.481 42.458C243.126 42.626 242.687 42.71 242.165 42.71C241.651 42.71 241.203 42.612 240.821 42.416C240.447 42.2107 240.153 41.926 239.939 41.562C239.733 41.198 239.631 40.7733 239.631 40.288C239.631 39.588 239.855 39.014 240.303 38.566C240.751 38.1087 241.39 37.8147 242.221 37.684L244.937 37.25ZM251.248 42.724C250.548 42.724 249.941 42.5467 249.428 42.192C248.924 41.828 248.527 41.3147 248.238 40.652C247.958 39.9893 247.818 39.2053 247.818 38.3C247.818 37.3947 247.958 36.6107 248.238 35.948C248.527 35.2853 248.924 34.7767 249.428 34.422C249.941 34.058 250.548 33.876 251.248 33.876C251.705 33.876 252.12 33.9647 252.494 34.142C252.867 34.3193 253.142 34.562 253.32 34.87H253.74V30.628H255.28V42.5H253.74V41.73H253.32C253.142 42.0287 252.867 42.2713 252.494 42.458C252.12 42.6353 251.705 42.724 251.248 42.724ZM251.57 41.282C252.279 41.282 252.825 41.0207 253.208 40.498C253.6 39.9753 253.796 39.2427 253.796 38.3C253.796 37.3573 253.6 36.6247 253.208 36.102C252.825 35.5793 252.279 35.318 251.57 35.318C250.87 35.318 250.324 35.5793 249.932 36.102C249.549 36.6247 249.358 37.3573 249.358 38.3C249.358 39.2427 249.549 39.9753 249.932 40.498C250.324 41.0207 250.87 41.282 251.57 41.282ZM256.69 34.1H258.342L260.498 40.386H261.478L261.044 41.8H259.364L256.69 34.1ZM264.6 34.1L261.506 43.718C261.32 44.2873 261.04 44.7307 260.666 45.048C260.293 45.3653 259.859 45.524 259.364 45.524C258.655 45.524 258.095 45.328 257.684 44.936C257.274 44.544 257.04 43.9747 256.984 43.228H258.384C258.496 43.536 258.618 43.76 258.748 43.9C258.888 44.04 259.075 44.11 259.308 44.11C259.514 44.11 259.677 44.0447 259.798 43.914C259.929 43.7833 260.046 43.5687 260.148 43.27L263.074 34.1H264.6Z" fill="#385159"/>
</svg>
